#!OML:ASF F:\VICON\USERDATA\INSTALL\rory3\rory3.ASF
:FULLY-SPECIFIED
:DEGREES
46
root 0.3721511798101372 17.883538339649707 15.785971756903235 -3.8282479775436586 -4.932295112009056 -0.39236591919899744
lfemur -18.37378705649331 -3.1307465049079086 -23.041141023136934
ltibia 26.097617617254016
lfoot -2.18007788891523 -3.545533473741882
ltoes -2.3945660376984423
rfemur -2.55638026378832 2.5874360711628626 22.761053777513087
rtibia 61.61284477827784
rfoot 11.035930197415714 -3.33715245074727
rtoes 19.06006844571015
lowerback 9.974882999776247 2.513522103694859 1.4281438744010468
upperback 0.1780922164746586 3.457865321340762 0.12428378629236403
thorax -4.740556586285385 1.6744589062070316 -1.7639465051656533
lowerneck -16.32701392392588 -3.2784053957239125 -1.7099902523190935
upperneck 20.665191758074844 -4.522598082849151 1.9018329585479423
head 9.251114059262143 -2.106475595005025 0.3542520547245646
lclavicle -4.485294789502434e-16 -7.739350588705042e-16
lhumerus -36.47444842683022 9.472659405056651 77.82056762415688
lradius 21.55400226314778
lwrist 4.036527203828204
lhand -27.003801469414533 20.67454682864426
lfingers 7.12502
lthumb -0.7090465146575708 49.755143978112166
rclavicle -4.525557277817815e-16 -7.758559252829567e-16
rhumerus -24.838298961045492 -17.465442987426645 -79.96392818754067
rradius 27.789971664632343
rwrist 2.08085225978125
rhand -18.45962483978587 22.95992336001078
rfingers 7.12502
rthumb 7.827102349646085 -6.820229483451865
47
root 0.39113134305356245 17.916896439661436 16.263306015694848 -4.458344976619251 -4.974411958723451 0.00031440104687385784
lfemur -14.945943406914843 -2.900132183212265 -24.09395954879413
ltibia 25.38442065482046
lfoot -5.173781634417826 -2.1101047347146893
ltoes -2.100656172473977
rfemur -8.245529796294441 1.48074239456753 22.064251686411936
rtibia 69.44257328093565
rfoot 8.608689440019083 -6.1121413692641875
rtoes 14.220818493838069
lowerback 10.56224433550768 2.205026470774533 0.8597990330079699
upperback 0.2814340702601946 2.996576158661049 0.09091113256595329
thorax -4.8626267375674 1.4697087280583054 -1.2790883444295744
lowerneck -16.297661222035195 -3.139700231083639 -1.752599239837525
upperneck 20.61583204611454 -4.2916628856195125 1.7937616523057802
head 9.215558688975639 -2.009246345498785 0.36926302033158304
lclavicle -4.48730287604981e-16 -7.739008019466237e-16
lhumerus -35.73504046051935 8.407690713110458 78.25313384003388
lradius 22.63990538325016
lwrist 4.845397886661179
lhand -27.12849547015934 21.0028205524802
lfingers 7.12502
lthumb -0.8501561554505616 50.158595889905925
rclavicle -4.518110842698262e-16 -7.752805779277032e-16
rhumerus -25.615702800346458 -18.644185030121104 -79.74015701404092
rradius 26.786493241769126
rwrist 3.0252313611104427
rhand -18.114371167510413 22.335286027402713
rfingers 7.12502
rthumb 8.136134728937426 -7.409621695138518
48
root 0.41159001392503936 17.944999220567823 16.785777297549522 -4.6308479655223245 -4.405393402874262 0.7343588218351371
lfemur -11.628905873542973 -2.5856848059208013 -25.2980387991013
ltibia 24.522591770107674
lfoot -7.855872496038988 -2.4033535724473625
ltoes -2.6154001810087038
rfemur -13.473093646894478 0.39150271392606717 21.368462306870793
rtibia 74.07002624971929
rfoot 3.078306953093639 -7.983836967817209
rtoes 9.838950241128579
lowerback 10.53506766264714 1.7257646134723494 0.11556538654853243
upperback 0.4318063785770497 2.287752068416091 0.09550339398481511
thorax -4.861435393533319 1.1406945530967463 -0.7000845104448812
lowerneck -16.222660484764567 -2.958240997608923 -1.7821707101470277
upperneck 20.52986964827265 -3.9837019991315916 1.5738718219180714
head 9.16637586366825 -1.8837349264861032 0.35676594812512075
lclavicle -4.470332597020902e-16 -7.726979405068101e-16
lhumerus -35.08584625741742 7.078283885808363 78.60142696940403
lradius 24.069114488759368
lwrist 5.648287199857091
lhand -27.28014837009102 21.625025585232546
lfingers 7.12502
lthumb -0.9837722461618975 50.84354918663642
rclavicle -4.514880759055155e-16 -7.750309204193227e-16
rhumerus -26.28395635721901 -19.598329448700955 -79.48778202462019
rradius 25.891314489158066
rwrist 4.03919801068323
rhand -17.788833165603247 21.791454552504376
rfingers 7.12502
rthumb 8.459012671332562 -7.945910353988157
49
root 0.4057499775043354 17.941490952167683 17.356752631094277 -4.831564362115875 -3.6377942353730335 1.094063702181487
lfemur -8.553715721283336 -2.6588482265444195 -25.959000346257795
ltibia 23.801007134316087
lfoot -8.804835632376943 -1.1082161346392694
ltoes -2.860312812216047
rfemur -18.221180454977496 -0.5650005275825571 21.115971105213717
rtibia 75.5034565977407
rfoot -0.5121242902253478 -7.698711051036925
rtoes 7.967016139321166
lowerback 10.687844875172706 1.1860573130039607 -0.4133722131807256
upperback 0.4712500269516675 1.5256982365542204 0.2007810616725314
thorax -4.963250480842779 0.7754809700596237 -0.10141356496013965
lowerneck -16.076510724723352 -2.789997298908815 -1.8601225586592451
upperneck 20.49498346785324 -3.68766658063372 1.3724159367484354
head 9.134260342162055 -1.7658436733330516 0.35200381721739743
lclavicle -4.470227661603378e-16 -7.723774546657538e-16
lhumerus -34.43193138010753 5.620024924499821 78.8690501749823
lradius 25.790519590657578
lwrist 6.330617914530325
lhand -27.437908648433748 22.275294534678146
lfingers 7.12502
lthumb -1.0577768862930623 51.60483033003683
rclavicle -4.509066489318224e-16 -7.745811900063968e-16
rhumerus -27.048382436306667 -20.254933004865922 -79.26785269994026
rradius 25.393386162227166
rwrist 4.424380445717479
rhand -17.562295550902114 21.440206551478497
rfingers 7.12502
rthumb 8.718706851849934 -8.30855619458495
